<svg width="35" height="35" viewBox="0 0 35 35" fill="none" xmlns="http://www.w3.org/2000/svg">
<path d="M17.5 0C7.87499 0 0 7.88906 0 17.6054C0 26.3906 6.40499 33.6822 14.77 35V22.7008H10.325V17.6054H14.77V13.7224C14.77 9.31225 17.3775 6.88755 21.385 6.88755C23.2925 6.88755 25.2875 7.22139 25.2875 7.22139V11.5612H23.0825C20.9125 11.5612 20.23 12.9142 20.23 14.3022V17.6054H25.095L24.3075 22.7008H20.23V35C24.3537 34.3461 28.1088 32.2336 30.8173 29.0438C33.5258 25.854 35.0093 21.7971 35 17.6054C35 7.88906 27.125 0 17.5 0Z" fill="white"/>
</svg>
