<svg width="36" height="36" viewBox="0 0 36 36" fill="none" xmlns="http://www.w3.org/2000/svg">
<path d="M10.65 0.5H25.35C30.95 0.5 35.5 5.05 35.5 10.65V25.35C35.5 28.0419 34.4306 30.6236 32.5271 32.5271C30.6236 34.4306 28.0419 35.5 25.35 35.5H10.65C5.05 35.5 0.5 30.95 0.5 25.35V10.65C0.5 7.95805 1.56937 5.37636 3.47287 3.47287C5.37636 1.56937 7.95805 0.5 10.65 0.5ZM10.3 4C8.62914 4 7.02671 4.66375 5.84523 5.84523C4.66375 7.02671 4 8.62914 4 10.3V25.7C4 29.1825 6.8175 32 10.3 32H25.7C27.3709 32 28.9733 31.3363 30.1548 30.1548C31.3363 28.9733 32 27.3709 32 25.7V10.3C32 6.8175 29.1825 4 25.7 4H10.3ZM27.1875 6.625C27.7677 6.625 28.3241 6.85547 28.7343 7.2657C29.1445 7.67594 29.375 8.23234 29.375 8.8125C29.375 9.39266 29.1445 9.94906 28.7343 10.3593C28.3241 10.7695 27.7677 11 27.1875 11C26.6073 11 26.0509 10.7695 25.6407 10.3593C25.2305 9.94906 25 9.39266 25 8.8125C25 8.23234 25.2305 7.67594 25.6407 7.2657C26.0509 6.85547 26.6073 6.625 27.1875 6.625ZM18 9.25C20.3206 9.25 22.5462 10.1719 24.1872 11.8128C25.8281 13.4538 26.75 15.6794 26.75 18C26.75 20.3206 25.8281 22.5462 24.1872 24.1872C22.5462 25.8281 20.3206 26.75 18 26.75C15.6794 26.75 13.4538 25.8281 11.8128 24.1872C10.1719 22.5462 9.25 20.3206 9.25 18C9.25 15.6794 10.1719 13.4538 11.8128 11.8128C13.4538 10.1719 15.6794 9.25 18 9.25ZM18 12.75C16.6076 12.75 15.2723 13.3031 14.2877 14.2877C13.3031 15.2723 12.75 16.6076 12.75 18C12.75 19.3924 13.3031 20.7277 14.2877 21.7123C15.2723 22.6969 16.6076 23.25 18 23.25C19.3924 23.25 20.7277 22.6969 21.7123 21.7123C22.6969 20.7277 23.25 19.3924 23.25 18C23.25 16.6076 22.6969 15.2723 21.7123 14.2877C20.7277 13.3031 19.3924 12.75 18 12.75Z" fill="white"/>
</svg>
