<svg width="283" height="81" viewBox="0 0 283 81" fill="none" xmlns="http://www.w3.org/2000/svg">
<path d="M41.9 43.9L3.5 60.1L2.83122e-07 49.3L28.1 38.4L2.83122e-07 27.5L3.5 16.7L41.9 32.8V43.9ZM44.8 69.8H93.2V80.5H44.8V69.8ZM115.2 55C117.267 55 118.967 54.8 120.3 54.4C121.7 53.9333 122.8 53.3333 123.6 52.6C124.4 51.8 124.933 50.9333 125.2 50C125.533 49 125.7 48 125.7 47C125.7 45.7333 125.333 44.6 124.6 43.6C123.867 42.6 122.933 41.7333 121.8 41C120.667 40.2 119.4 39.5 118 38.9C116.6 38.2333 115.2 37.6333 113.8 37.1C111.933 36.4333 110 35.6667 108 34.8C106 33.9333 104.167 32.8333 102.5 31.5C100.9 30.1667 99.5667 28.5333 98.5 26.6C97.4333 24.6 96.9 22.1333 96.9 19.2C96.9 13.4 98.7667 8.86666 102.5 5.59999C106.3 2.33333 111.5 0.699998 118.1 0.699998C121.9 0.699998 125.2 1.13333 128 2C130.867 2.86666 133.267 3.83333 135.2 4.9L131.6 14.4C129.933 13.4667 128.067 12.6667 126 12C124 11.3333 121.667 11 119 11C112.467 11 109.2 13.3667 109.2 18.1C109.2 19.3 109.533 20.3667 110.2 21.3C110.867 22.1667 111.7 22.9667 112.7 23.7C113.767 24.3667 114.933 24.9667 116.2 25.5C117.533 26.0333 118.833 26.5333 120.1 27C122.033 27.7333 124.033 28.5667 126.1 29.5C128.233 30.3667 130.167 31.5667 131.9 33.1C133.7 34.5667 135.167 36.4333 136.3 38.7C137.433 40.9 138 43.7 138 47.1C138 52.9 136.1 57.4 132.3 60.6C128.567 63.7333 122.867 65.3 115.2 65.3C110.067 65.3 105.967 64.7667 102.9 63.7C99.8333 62.5667 97.5333 61.5333 96 60.6L99.6 50.6C101.4 51.6667 103.533 52.6667 106 53.6C108.533 54.5333 111.6 55 115.2 55ZM143.1 40.9C143.1 36.7667 143.733 33.1333 145 30C146.267 26.8667 147.933 24.2667 150 22.2C152.067 20.0667 154.433 18.4667 157.1 17.4C159.767 16.3333 162.5 15.8 165.3 15.8C172.233 15.8 177.5 17.8667 181.1 22C184.7 26.0667 186.5 32.0333 186.5 39.9C186.5 40.7 186.467 41.5333 186.4 42.4C186.4 43.2667 186.367 43.9667 186.3 44.5H155.8C155.8 47.5667 157.067 50 159.6 51.8C162.133 53.5333 165.4 54.4 169.4 54.4C171.867 54.4 174.2 54.1333 176.4 53.6C178.667 53.0667 180.567 52.5333 182.1 52L183.8 62.5C181.667 63.2333 179.4 63.8333 177 64.3C174.6 64.8333 171.9 65.1 168.9 65.1C164.9 65.1 161.3 64.6 158.1 63.6C154.967 62.5333 152.267 61 150 59C147.8 56.9333 146.1 54.4 144.9 51.4C143.7 48.4 143.1 44.9 143.1 40.9ZM174.6 36C174.6 34.7333 174.433 33.5333 174.1 32.4C173.767 31.2 173.233 30.1333 172.5 29.2C171.767 28.2667 170.833 27.5333 169.7 27C168.567 26.4 167.167 26.1 165.5 26.1C163.9 26.1 162.5 26.3667 161.3 26.9C160.167 27.4333 159.2 28.1667 158.4 29.1C157.667 30.0333 157.067 31.1 156.6 32.3C156.2 33.5 155.933 34.7333 155.8 36H174.6ZM194.3 18.5C196.5 17.9 199.2 17.3333 202.4 16.8C205.667 16.2667 209.2 16 213 16C216.733 16 219.833 16.5333 222.3 17.6C224.767 18.6 226.7 20.0667 228.1 22C229.567 23.8667 230.6 26.1333 231.2 28.8C231.8 31.4 232.1 34.3 232.1 37.5V64H219.8V39.1C219.8 34.7 219.3 31.5333 218.3 29.6C217.3 27.6667 215.267 26.7 212.2 26.7C211.267 26.7 210.333 26.7333 209.4 26.8C208.533 26.8667 207.6 26.9667 206.6 27.1V64H194.3V18.5ZM265.6 65.3C256.867 65.3 250.2 62.5 245.6 56.9C241 51.3 238.7 43.3333 238.7 33C238.7 27.8667 239.4 23.3 240.8 19.3C242.2 15.3 244.133 11.9333 246.6 9.2C249.133 6.4 252.1 4.3 255.5 2.9C258.967 1.43333 262.733 0.699998 266.8 0.699998C269 0.699998 270.967 0.899998 272.7 1.3C274.5 1.63333 276.067 2.03333 277.4 2.5C278.733 2.96666 279.833 3.46666 280.7 4C281.633 4.53333 282.333 4.93333 282.8 5.2L279.6 15C278.067 14 276.2 13.1667 274 12.5C271.867 11.7667 269.4 11.4 266.6 11.4C264.667 11.4 262.767 11.7667 260.9 12.5C259.1 13.1667 257.467 14.3333 256 16C254.6 17.6 253.433 19.7667 252.5 22.5C251.633 25.2333 251.2 28.6333 251.2 32.7C251.2 39.7667 252.4 45.2 254.8 49C257.267 52.7333 261.267 54.6 266.8 54.6C270 54.6 272.633 54.2333 274.7 53.5C276.833 52.7667 278.533 52.0333 279.8 51.3L282.9 61C281.167 62.0667 278.8 63.0667 275.8 64C272.867 64.8667 269.467 65.3 265.6 65.3Z" fill="white"/>
</svg>
