<svg width="39" height="29" viewBox="0 0 39 29" fill="none" xmlns="http://www.w3.org/2000/svg">
<path d="M15.6 20.0893L25.7205 14.0625L15.6 8.03571V20.0893ZM38.142 4.35938C38.3955 5.30357 38.571 6.5692 38.688 8.17634C38.8245 9.78348 38.883 11.1696 38.883 12.375L39 14.0625C39 18.4621 38.688 21.6964 38.142 23.7656C37.6545 25.5737 36.5235 26.7388 34.7685 27.2411C33.852 27.5022 32.175 27.683 29.601 27.8036C27.066 27.9442 24.7455 28.0045 22.6005 28.0045L19.5 28.125C11.3295 28.125 6.24 27.8036 4.2315 27.2411C2.4765 26.7388 1.3455 25.5737 0.858 23.7656C0.6045 22.8214 0.429 21.5558 0.312 19.9487C0.1755 18.3415 0.117 16.9554 0.117 15.75L0 14.0625C0 9.66295 0.312 6.42857 0.858 4.35938C1.3455 2.55134 2.4765 1.38616 4.2315 0.883929C5.148 0.622768 6.825 0.441964 9.399 0.321428C11.934 0.180803 14.2545 0.120536 16.3995 0.120536L19.5 0C27.6705 0 32.76 0.321429 34.7685 0.883929C36.5235 1.38616 37.6545 2.55134 38.142 4.35938Z" fill="white"/>
</svg>
